<?xml version="1.0" encoding="utf-8"?>
<!-- Generator: Adobe Illustrator 16.0.0, SVG Export Plug-In . SVG Version: 6.00 Build 0)  -->
<!DOCTYPE svg PUBLIC "-//W3C//DTD SVG 1.1//EN" "http://www.w3.org/Graphics/SVG/1.1/DTD/svg11.dtd">
<svg version="1.1" id="Layer_1" xmlns="http://www.w3.org/2000/svg" xmlns:xlink="http://www.w3.org/1999/xlink" x="0px" y="0px"
	 width="1440px" height="1716px" viewBox="0 212.5 1440 1716" enable-background="new 0 212.5 1440 1716" xml:space="preserve">
<path fill="#FFFFFF" d="M0,239.61v960.779c-0.548,181.306,67.997,356.011,191.688,488.571h2.337
	c271.544,290.491,727.165,305.851,1017.656,34.306c144.863-135.415,227.464-324.58,228.318-522.877V239.61H0z M932.728,307.402
	L720,534.156L507.272,307.402H932.728z M549.351,814.676L720,630l172.987,184.676H549.351z M918.701,880.13v743.376H521.299V880.13
	H918.701z M65.455,307.402h327.273L65.455,613.637V307.402z M65.455,704.805l385.714-360l224.415,238.442L458.182,814.675H65.455
	V704.805z M65.455,1200.39V880.13h390.389v743.376H222.078C121.729,1505.279,66.271,1355.46,65.455,1200.39L65.455,1200.39z
	 M720,1854.935c-159.146-0.751-312.687-58.848-432.468-163.636h864.936C1032.908,1796.455,879.224,1854.605,720,1854.935z
	 M1374.545,1200.39c0.205,155.255-55.379,305.415-156.623,423.116H984.156V880.13h390.389V1200.39z M1374.545,814.675H984.156
	L766.753,583.247l222.078-238.442l385.714,360V814.675z M1374.545,613.637l-327.272-306.234h327.272V613.637z"/>
</svg>
