<?xml version="1.0" encoding="utf-8"?>
<!-- Generator: Adobe Illustrator 16.0.0, SVG Export Plug-In . SVG Version: 6.00 Build 0)  -->
<!DOCTYPE svg PUBLIC "-//W3C//DTD SVG 1.1//EN" "http://www.w3.org/Graphics/SVG/1.1/DTD/svg11.dtd">
<svg version="1.1" id="Layer_1" xmlns="http://www.w3.org/2000/svg" xmlns:xlink="http://www.w3.org/1999/xlink" x="0px" y="0px"
	 width="1440px" height="2160px" viewBox="0 0 1440 2160" enable-background="new 0 0 1440 2160" xml:space="preserve">
<g>
	<path fill="#FEB9A6" d="M201.003,1333.609L0,1145.169l48.681-51.821l152.323,141.331l175.877-164.886l172.737,161.744
		l169.597-160.174l171.167,161.745l171.167-163.315l177.448,164.886l150.752-141.331l50.251,51.821l-201.003,188.44
		l-175.878-164.886l-172.737,163.315l-171.167-161.745l-171.167,160.175l-171.167-161.745L201.003,1333.609z"/>
</g>
<g>
	<path fill="#FEB9A6" d="M201.003,1090.207L0,901.767l48.681-51.821l152.323,141.33l175.877-164.885l172.737,161.744
		l169.597-160.174l171.167,161.744l171.167-163.314l177.448,164.885l150.752-141.33L1440,901.767l-201.003,188.44l-175.878-164.886
		l-172.737,163.315L719.215,926.892l-171.167,160.175L376.881,925.321L201.003,1090.207z"/>
</g>
</svg>
